# Blender v2.83.2 OBJ File: 'untitled.blend'
# www.blender.org
o Cube
v 1.000000 1.000000 -1.000000
v 1.000000 -1.000000 -1.000000
v 1.000000 1.000000 1.000000
v 1.000000 -1.000000 1.000000
v -1.000000 1.000000 -1.000000
v -1.000000 -1.000000 -1.000000
v -1.000000 1.000000 1.000000
v -1.000000 -1.000000 1.000000
v -1.000000 -1.000000 1.000000
v -1.000000 -1.000000 1.000000
v -1.000000 1.000000 1.000000
v -1.000000 1.000000 1.000000
v -1.000000 1.000000 -1.000000
v -1.000000 1.000000 -1.000000
v -1.000000 -1.000000 -1.000000
v -1.000000 -1.000000 -1.000000
v 1.000000 1.000000 1.000000
v 1.000000 1.000000 1.000000
v 1.000000 -1.000000 1.000000
v 1.000000 -1.000000 1.000000
v 1.000000 1.000000 -1.000000
v 1.000000 1.000000 -1.000000
v 1.000000 -1.000000 -1.000000
v 1.000000 -1.000000 -1.000000
vt 0.935086 0.373515
vt 0.890363 0.418238
vt 0.890363 0.373515
vt 0.935086 0.418238
vt 0.890363 0.462961
vt 0.890363 0.418238
vt 0.935086 0.462961
vt 0.890363 0.507684
vt 0.890363 0.462961
vt 0.522361 0.544723
vt 0.477639 0.589446
vt 0.477639 0.544723
vt 0.890363 0.462961
vt 0.845640 0.507684
vt 0.845640 0.462961
vt 0.567084 0.500000
vt 0.522361 0.544723
vt 0.522361 0.500000
vt 0.935086 0.418238
vt 0.935086 0.462961
vt 0.935086 0.507684
vt 0.522361 0.589446
vt 0.890363 0.507684
vt 0.567084 0.544723
vn 0.0000 0.0000 -1.0000
vn 1.0000 0.0000 0.0000
vn -1.0000 0.0000 0.0000
vn 0.0000 -1.0000 0.0000
vn 0.0000 0.0000 1.0000
vn 0.0000 1.0000 0.0000
s off
f 13/1/1 24/2/1 15/3/1
f 22/4/2 19/5/2 23/6/2
f 11/7/3 16/8/3 9/9/3
f 2/10/4 10/11/4 6/12/4
f 18/13/5 8/14/5 4/15/5
f 5/16/6 3/17/6 1/18/6
f 13/1/1 21/19/1 24/2/1
f 22/4/2 17/20/2 19/5/2
f 11/7/3 14/21/3 16/8/3
f 2/10/4 20/22/4 10/11/4
f 18/13/5 12/23/5 8/14/5
f 5/16/6 7/24/6 3/17/6
