# Blender v2.90.0 OBJ File: 'house.blend'
# www.blender.org
mtllib house.mtl
o Cube
v -0.792273 1.142716 0.792273
v -0.792273 1.142716 0.792273
v -0.792273 1.142716 0.792273
v 0.792273 1.142716 -0.792273
v 0.792273 1.142716 -0.792273
v 0.792273 1.142716 -0.792273
v 0.792273 0.002497 -0.792273
v -0.792273 0.002497 0.792273
v -0.792273 0.002497 0.792273
v -0.792273 0.002497 -0.792273
v 0.792273 1.142716 -0.792273
v 0.792273 0.002497 -0.792273
v 0.792273 1.142716 0.792273
v 0.792273 0.002497 0.792273
v -0.792273 1.142716 -0.792273
v -0.792273 0.002497 -0.792273
v -0.792273 1.142716 0.792273
v 0.000000 2.020965 0.000000
v 0.000000 2.020965 0.000000
v 0.000000 2.020965 0.000000
v 0.000000 2.020965 0.000000
v 0.792273 1.142716 0.792273
v 0.792273 1.142716 0.792273
v 0.792273 1.142716 0.792273
v 0.792273 0.002497 0.792273
v -0.792273 1.142716 -0.792273
v -0.792273 1.142716 -0.792273
v -0.792273 1.142716 -0.792273
v 0.000000 2.020965 0.000000
v 0.000000 2.020965 0.000000
v 0.000000 2.020965 0.000000
v 0.000000 2.020965 0.000000
v 0.000000 2.020965 0.000000
v 0.000000 2.020965 0.000000
v 0.000000 2.020965 0.000000
v 0.000000 2.020965 0.000000
vt 0.856111 0.452653
vt 0.856111 0.396972
vt 0.856111 0.452653
vt 0.758803 0.562606
vt 0.694530 0.626879
vt 0.694530 0.562606
vt 0.758803 0.369788
vt 0.694530 0.434061
vt 0.694530 0.369788
vt 0.758803 0.498333
vt 0.694530 0.562606
vt 0.694530 0.498333
vt 0.758803 0.434061
vt 0.694530 0.498333
vt 0.694530 0.434061
vt 0.625000 0.500000
vt 0.875000 0.750000
vt 0.625000 0.750000
vt 0.856111 0.564014
vt 0.856111 0.508333
vt 0.856111 0.564014
vt 0.856111 0.508333
vt 0.856111 0.452653
vt 0.856111 0.508333
vt 0.856111 0.619694
vt 0.856111 0.564014
vt 0.856111 0.619694
vt 0.856111 0.396972
vt 0.758803 0.626879
vt 0.758803 0.434061
vt 0.758803 0.562606
vt 0.758803 0.498333
vt 0.875000 0.500000
vt 0.856111 0.508333
vt 0.856111 0.452653
vt 0.856111 0.564014
vn 0.0000 0.0000 1.0000
vn -1.0000 0.0000 0.0000
vn 1.0000 0.0000 0.0000
vn 0.0000 0.0000 -1.0000
vn -0.7425 0.6698 0.0000
vn 0.7425 0.6698 0.0000
vn 0.0000 0.6698 -0.7425
vn 0.0000 0.6698 0.7425
usemtl Material
s off
f 27/1/1 32/2/1 35/3/1
f 22/4/1 8/5/1 25/6/1
f 1/7/2 10/8/2 9/9/2
f 6/10/3 14/11/3 7/12/3
f 28/13/4 12/14/4 16/15/4
f 33/16/1 31/17/1 29/18/1
f 24/19/1 34/20/1 30/21/1
f 11/22/1 21/23/1 20/24/1
f 17/25/1 18/26/1 19/27/1
f 27/1/5 2/28/5 32/2/5
f 22/4/1 3/29/1 8/5/1
f 1/7/2 26/30/2 10/8/2
f 6/10/3 23/31/3 14/11/3
f 28/13/4 5/32/4 12/14/4
f 33/16/1 36/33/1 31/17/1
f 24/19/6 4/34/6 34/20/6
f 11/22/7 15/35/7 21/23/7
f 17/25/8 13/36/8 18/26/8
