# Blender v2.90.0 OBJ File: ''
# www.blender.org
mtllib Selection.mtl
o Cube
v 0.858022 0.045001 -0.858022
v 0.858022 0.045001 0.858022
v -0.858022 0.045001 -0.858022
v -0.858022 0.045001 0.858022
v 1.000000 0.045001 1.000000
v -1.000000 0.045001 1.000000
v 1.000000 0.045001 -1.000000
v -1.000000 0.045001 -1.000000
vt 0.925846 0.762513
vt 0.855440 0.767893
vt 0.860820 0.762513
vt 0.855440 0.692107
vt 0.860820 0.697487
vt 0.925846 0.697487
vt 0.931226 0.767893
vt 0.931226 0.692107
vn 0.0000 1.0000 0.0000
usemtl Material
s off
f 4/1/1 5/2/1 2/3/1
f 2/3/1 7/4/1 1/5/1
f 3/6/1 6/7/1 4/1/1
f 1/5/1 8/8/1 3/6/1
f 4/1/1 6/7/1 5/2/1
f 2/3/1 5/2/1 7/4/1
f 3/6/1 8/8/1 6/7/1
f 1/5/1 7/4/1 8/8/1
